# xmcd CD database file
#
# Track frame offsets:
#	150
#	13385
#	25059
#	37454
#	50340
#	63158
#	76594
#	89812
#	102127
#	111858
#	125251
#	135111
#	148841
#	161111
#	174351
#	184712
#	197816
#	212018
#	224277
#	238007
#	251085
#	264807
#	277499
#	290195
#	303156
#	316077
#	329293
#
# Disc length: 4574 seconds
#
# Revision: 5
# Processed by: cddbd v1.5.2PL0 Copyright (c) Steve Scherf et al.
# Submitted via: CDex 1.70beta2
#
DISCID=9111dc1b
DTITLE=Various Artist - Legends of Country: 27 All Time Favourite Country Hits
DYEAR=2002
DGENRE=Country
TTITLE0=Hank Williams - Hey, Good Lookin'
TTITLE1=Tennessee Ernie Ford - The Shotgun Boogie
TTITLE2=Leon Payne - I Love You Because
TTITLE3=Merle Travis - Sixteen Tons
TTITLE4=Hank Snow - I'm Movin' On
TTITLE5=Tex Ritter and Buddy Cole - Deck of Cards
TTITLE6=George Morgan - Candy Kisses
TTITLE7=Hank Williams - Cold, Cold Heart
TTITLE8=Bill Monroe and The Bluegrass Boys - Blue Moon of Kentucky
TTITLE9=Pee Wee King - Tennessee Waltz
TTITLE10=Margaret Whiting and Jimmy Wakely - Slipping Around
TTITLE11=Moon Mullican - I'll Sail My Ship Alone
TTITLE12=Spade Cooley and His Orchestra - Detour
TTITLE13=Little Jimmy Dickens - Hillbilly Fever
TTITLE14=Kitty Wells - Make Up Your Mind
TTITLE15=Slim Whitman - Birmingham Jail
TTITLE16=Lefty Frizzell - Always Late (With Your Kisses)
TTITLE17=Lester Flatt and Earl Scruggs - Foggy Mountain Breakdown
TTITLE18=Ernest Tubb and Red Foley - Goodnight Irene
TTITLE19=Sons of the Pioneers - Cool Water
TTITLE20=Webb Pierce - Wondering
TTITLE21=Chet Atkins - Barbershop Rag
TTITLE22=Red Foley - Chattanoogie Shoe Shine Boy
TTITLE23=Carl Smith - Let Old Mother Nature Have Her Way
TTITLE24=Eddy Arnold - Anytime
TTITLE25=Tex Williams - Smoke! Smoke! Smoke! (That Cigarette)
TTITLE26=Tennessee Ernie Ford - Mule Train
EXTD=CDDBSort:various_artists,legends_of_country_27_all_time_favourite_country_hits - UPC: 5014293672528 - Catalogue #: PLATCD 725 - Label: Prism Leisure - YEAR: 2002
EXTT0=
EXTT1=
EXTT2=
EXTT3=
EXTT4=
EXTT5=
EXTT6=
EXTT7=
EXTT8=
EXTT9=
EXTT10=
EXTT11=
EXTT12=
EXTT13=
EXTT14=
EXTT15=
EXTT16=
EXTT17=
EXTT18=
EXTT19=
EXTT20=
EXTT21=
EXTT22=
EXTT23=
EXTT24=
EXTT25=
EXTT26=
PLAYORDER=
